<mxfile host="app.diagrams.net" modified="2023-11-06T01:12:57.331Z" agent="Mozilla/5.0 (Macintosh; Intel Mac OS X 10_15_7) AppleWebKit/605.1.15 (KHTML, like Gecko) Version/16.6 Safari/605.1.15" etag="4Sk-yFlMKugzAJHHPfy3" version="22.0.8" type="google">
  <diagram name="Page-1" id="9BZE0qOp22ibQMmIipUt">
    <mxGraphModel grid="1" page="1" gridSize="10" guides="1" tooltips="1" connect="1" arrows="1" fold="1" pageScale="1" pageWidth="850" pageHeight="1100" math="0" shadow="0">
      <root>
        <mxCell id="0" />
        <mxCell id="1" parent="0" />
        <mxCell id="yb0F-JYwEYQ3UP4GpA2z-1" value="Main Page" style="rounded=0;whiteSpace=wrap;html=1;" vertex="1" parent="1">
          <mxGeometry x="488" y="5" width="60" height="30" as="geometry" />
        </mxCell>
        <mxCell id="yb0F-JYwEYQ3UP4GpA2z-2" value="Authentication" style="rounded=0;whiteSpace=wrap;html=1;" vertex="1" parent="1">
          <mxGeometry x="478" y="50" width="80" height="30" as="geometry" />
        </mxCell>
        <mxCell id="ZxM0z7NMDJxI3TqQeE6x-7" value="Write Song Review" style="rounded=0;whiteSpace=wrap;html=1;" vertex="1" parent="1">
          <mxGeometry x="-639" y="590" width="70" height="30" as="geometry" />
        </mxCell>
        <mxCell id="ZxM0z7NMDJxI3TqQeE6x-8" value="Comments" style="rounded=0;whiteSpace=wrap;html=1;" vertex="1" parent="1">
          <mxGeometry x="-204" y="690" width="60" height="30" as="geometry" />
        </mxCell>
        <mxCell id="yb0F-JYwEYQ3UP4GpA2z-4" value="Give Song Rating" style="rounded=0;whiteSpace=wrap;html=1;" vertex="1" parent="1">
          <mxGeometry x="-879" y="590" width="70" height="30" as="geometry" />
        </mxCell>
        <mxCell id="yb0F-JYwEYQ3UP4GpA2z-6" value="Search Song" style="rounded=0;whiteSpace=wrap;html=1;" vertex="1" parent="1">
          <mxGeometry x="-278" y="330" width="60" height="30" as="geometry" />
        </mxCell>
        <mxCell id="yb0F-JYwEYQ3UP4GpA2z-7" value="Search Album" style="rounded=0;whiteSpace=wrap;html=1;" vertex="1" parent="1">
          <mxGeometry x="181" y="330" width="60" height="30" as="geometry" />
        </mxCell>
        <mxCell id="ZxM0z7NMDJxI3TqQeE6x-10" value="Admin" style="rounded=0;whiteSpace=wrap;html=1;" vertex="1" parent="1">
          <mxGeometry x="245" y="120" width="60" height="30" as="geometry" />
        </mxCell>
        <mxCell id="yb0F-JYwEYQ3UP4GpA2z-8" value="Search Artist" style="rounded=0;whiteSpace=wrap;html=1;" vertex="1" parent="1">
          <mxGeometry x="750" y="330" width="60" height="30" as="geometry" />
        </mxCell>
        <mxCell id="ZxM0z7NMDJxI3TqQeE6x-13" value="" style="endArrow=none;html=1;rounded=0;entryX=0.5;entryY=1;entryDx=0;entryDy=0;" edge="1" parent="1" target="yb0F-JYwEYQ3UP4GpA2z-2">
          <mxGeometry width="50" height="50" relative="1" as="geometry">
            <mxPoint x="518" y="100" as="sourcePoint" />
            <mxPoint x="198" y="140" as="targetPoint" />
          </mxGeometry>
        </mxCell>
        <mxCell id="ZxM0z7NMDJxI3TqQeE6x-14" value="" style="endArrow=none;html=1;rounded=0;entryX=0.5;entryY=0;entryDx=0;entryDy=0;" edge="1" parent="1" target="ZxM0z7NMDJxI3TqQeE6x-49">
          <mxGeometry width="50" height="50" relative="1" as="geometry">
            <mxPoint x="390" y="100" as="sourcePoint" />
            <mxPoint x="490" y="120" as="targetPoint" />
            <Array as="points">
              <mxPoint x="760" y="100" />
            </Array>
          </mxGeometry>
        </mxCell>
        <mxCell id="ZxM0z7NMDJxI3TqQeE6x-15" value="" style="endArrow=none;html=1;rounded=0;entryX=0.5;entryY=0;entryDx=0;entryDy=0;" edge="1" parent="1" target="ZxM0z7NMDJxI3TqQeE6x-10">
          <mxGeometry width="50" height="50" relative="1" as="geometry">
            <mxPoint x="390" y="100" as="sourcePoint" />
            <mxPoint x="450" y="130" as="targetPoint" />
            <Array as="points">
              <mxPoint x="275" y="100" />
            </Array>
          </mxGeometry>
        </mxCell>
        <mxCell id="ZxM0z7NMDJxI3TqQeE6x-16" value="" style="endArrow=none;html=1;rounded=0;entryX=0.5;entryY=1;entryDx=0;entryDy=0;" edge="1" parent="1" target="yb0F-JYwEYQ3UP4GpA2z-1">
          <mxGeometry width="50" height="50" relative="1" as="geometry">
            <mxPoint x="518" y="50" as="sourcePoint" />
            <mxPoint x="523" y="190" as="targetPoint" />
          </mxGeometry>
        </mxCell>
        <mxCell id="yb0F-JYwEYQ3UP4GpA2z-10" value="" style="endArrow=none;html=1;rounded=0;entryX=0.5;entryY=1;entryDx=0;entryDy=0;" edge="1" parent="1">
          <mxGeometry width="50" height="50" relative="1" as="geometry">
            <mxPoint x="211" y="310" as="sourcePoint" />
            <mxPoint x="281" y="290" as="targetPoint" />
            <Array as="points">
              <mxPoint x="281" y="310" />
            </Array>
          </mxGeometry>
        </mxCell>
        <mxCell id="ZxM0z7NMDJxI3TqQeE6x-22" value="Song Rating" style="rounded=0;whiteSpace=wrap;html=1;" vertex="1" parent="1">
          <mxGeometry x="-694" y="440" width="60" height="30" as="geometry" />
        </mxCell>
        <mxCell id="ZxM0z7NMDJxI3TqQeE6x-24" value="Edit Song Rating" style="rounded=0;whiteSpace=wrap;html=1;" vertex="1" parent="1">
          <mxGeometry x="-799" y="590" width="60" height="30" as="geometry" />
        </mxCell>
        <mxCell id="yb0F-JYwEYQ3UP4GpA2z-17" value="Select Song" style="rounded=0;whiteSpace=wrap;html=1;" vertex="1" parent="1">
          <mxGeometry x="-208" y="330" width="60" height="30" as="geometry" />
        </mxCell>
        <mxCell id="ZxM0z7NMDJxI3TqQeE6x-25" value="Delete Song Rating" style="rounded=0;whiteSpace=wrap;html=1;" vertex="1" parent="1">
          <mxGeometry x="-729" y="590" width="70" height="30" as="geometry" />
        </mxCell>
        <mxCell id="YI7VK0BW7LHJZyB_2Pcg-1" value="View Songs" style="rounded=0;whiteSpace=wrap;html=1;" vertex="1" parent="1">
          <mxGeometry x="-138" y="330" width="60" height="30" as="geometry" />
        </mxCell>
        <mxCell id="yb0F-JYwEYQ3UP4GpA2z-19" value="" style="endArrow=none;html=1;rounded=0;entryX=0.5;entryY=0;entryDx=0;entryDy=0;" edge="1" parent="1" target="YI7VK0BW7LHJZyB_2Pcg-1">
          <mxGeometry width="50" height="50" relative="1" as="geometry">
            <mxPoint x="-178" y="320" as="sourcePoint" />
            <mxPoint x="-108" y="320" as="targetPoint" />
            <Array as="points">
              <mxPoint x="-108" y="320" />
            </Array>
          </mxGeometry>
        </mxCell>
        <mxCell id="YI7VK0BW7LHJZyB_2Pcg-2" value="" style="endArrow=none;html=1;rounded=0;entryX=0.5;entryY=1;entryDx=0;entryDy=0;" edge="1" parent="1" target="yb0F-JYwEYQ3UP4GpA2z-17">
          <mxGeometry width="50" height="50" relative="1" as="geometry">
            <mxPoint x="-596" y="420" as="sourcePoint" />
            <mxPoint x="-56" y="400" as="targetPoint" />
            <Array as="points">
              <mxPoint x="-596" y="390" />
              <mxPoint x="-178" y="390" />
            </Array>
          </mxGeometry>
        </mxCell>
        <mxCell id="yb0F-JYwEYQ3UP4GpA2z-21" value="" style="endArrow=none;html=1;rounded=0;exitX=0.5;exitY=0;exitDx=0;exitDy=0;" edge="1" parent="1">
          <mxGeometry width="50" height="50" relative="1" as="geometry">
            <mxPoint x="-178.22" y="330" as="sourcePoint" />
            <mxPoint x="-178.22" y="310" as="targetPoint" />
          </mxGeometry>
        </mxCell>
        <mxCell id="YI7VK0BW7LHJZyB_2Pcg-6" value="Edit Song Review" style="rounded=0;whiteSpace=wrap;html=1;" vertex="1" parent="1">
          <mxGeometry x="-485" y="590" width="60" height="30" as="geometry" />
        </mxCell>
        <mxCell id="yb0F-JYwEYQ3UP4GpA2z-23" value="Select Album" style="rounded=0;whiteSpace=wrap;html=1;" vertex="1" parent="1">
          <mxGeometry x="251" y="330" width="60" height="30" as="geometry" />
        </mxCell>
        <mxCell id="ZxM0z7NMDJxI3TqQeE6x-34" value="" style="endArrow=none;html=1;rounded=0;exitX=0.5;exitY=0;exitDx=0;exitDy=0;" edge="1" parent="1" source="ZxM0z7NMDJxI3TqQeE6x-22">
          <mxGeometry width="50" height="50" relative="1" as="geometry">
            <mxPoint x="-554" y="460" as="sourcePoint" />
            <mxPoint x="-594" y="420" as="targetPoint" />
            <Array as="points">
              <mxPoint x="-664" y="420" />
            </Array>
          </mxGeometry>
        </mxCell>
        <mxCell id="yb0F-JYwEYQ3UP4GpA2z-24" value="View Albums" style="rounded=0;whiteSpace=wrap;html=1;" vertex="1" parent="1">
          <mxGeometry x="321" y="330" width="60" height="30" as="geometry" />
        </mxCell>
        <mxCell id="YI7VK0BW7LHJZyB_2Pcg-8" value="Select Song Review" style="rounded=0;whiteSpace=wrap;html=1;" vertex="1" parent="1">
          <mxGeometry x="-330" y="590" width="73" height="30" as="geometry" />
        </mxCell>
        <mxCell id="YI7VK0BW7LHJZyB_2Pcg-4" value="Song Review" style="rounded=0;whiteSpace=wrap;html=1;" vertex="1" parent="1">
          <mxGeometry x="-559" y="440" width="70" height="30" as="geometry" />
        </mxCell>
        <mxCell id="ZxM0z7NMDJxI3TqQeE6x-35" value="" style="endArrow=none;html=1;rounded=0;exitX=0.5;exitY=0;exitDx=0;exitDy=0;" edge="1" parent="1" source="YI7VK0BW7LHJZyB_2Pcg-4">
          <mxGeometry width="50" height="50" relative="1" as="geometry">
            <mxPoint x="-544" y="470" as="sourcePoint" />
            <mxPoint x="-594" y="420" as="targetPoint" />
            <Array as="points">
              <mxPoint x="-524" y="420" />
            </Array>
          </mxGeometry>
        </mxCell>
        <mxCell id="YI7VK0BW7LHJZyB_2Pcg-5" value="View Song Reviews" style="rounded=0;whiteSpace=wrap;html=1;" vertex="1" parent="1">
          <mxGeometry x="-560" y="590" width="65" height="30" as="geometry" />
        </mxCell>
        <mxCell id="yb0F-JYwEYQ3UP4GpA2z-29" value="Select Artist" style="rounded=0;whiteSpace=wrap;html=1;" vertex="1" parent="1">
          <mxGeometry x="820" y="330" width="60" height="30" as="geometry" />
        </mxCell>
        <mxCell id="yb0F-JYwEYQ3UP4GpA2z-28" value="" style="endArrow=none;html=1;rounded=0;exitX=0.5;exitY=0;exitDx=0;exitDy=0;" edge="1" parent="1">
          <mxGeometry width="50" height="50" relative="1" as="geometry">
            <mxPoint x="210.76" y="330" as="sourcePoint" />
            <mxPoint x="210.76" y="310" as="targetPoint" />
          </mxGeometry>
        </mxCell>
        <mxCell id="yb0F-JYwEYQ3UP4GpA2z-32" value="" style="endArrow=none;html=1;rounded=0;exitX=0.5;exitY=0;exitDx=0;exitDy=0;" edge="1" parent="1">
          <mxGeometry width="50" height="50" relative="1" as="geometry">
            <mxPoint x="779.8299999999999" y="330" as="sourcePoint" />
            <mxPoint x="850" y="320" as="targetPoint" />
            <Array as="points">
              <mxPoint x="780" y="320" />
            </Array>
          </mxGeometry>
        </mxCell>
        <mxCell id="yb0F-JYwEYQ3UP4GpA2z-25" value="" style="endArrow=none;html=1;rounded=0;" edge="1" parent="1">
          <mxGeometry width="50" height="50" relative="1" as="geometry">
            <mxPoint x="281" y="310" as="sourcePoint" />
            <mxPoint x="351" y="310" as="targetPoint" />
          </mxGeometry>
        </mxCell>
        <mxCell id="yb0F-JYwEYQ3UP4GpA2z-30" value="View Artists" style="rounded=0;whiteSpace=wrap;html=1;" vertex="1" parent="1">
          <mxGeometry x="890" y="330" width="60" height="30" as="geometry" />
        </mxCell>
        <mxCell id="yb0F-JYwEYQ3UP4GpA2z-26" value="" style="endArrow=none;html=1;rounded=0;exitX=0.5;exitY=0;exitDx=0;exitDy=0;" edge="1" parent="1">
          <mxGeometry width="50" height="50" relative="1" as="geometry">
            <mxPoint x="351" y="330" as="sourcePoint" />
            <mxPoint x="351" y="310" as="targetPoint" />
          </mxGeometry>
        </mxCell>
        <mxCell id="yb0F-JYwEYQ3UP4GpA2z-27" value="" style="endArrow=none;html=1;rounded=0;exitX=0.5;exitY=0;exitDx=0;exitDy=0;" edge="1" parent="1">
          <mxGeometry width="50" height="50" relative="1" as="geometry">
            <mxPoint x="280.76" y="330" as="sourcePoint" />
            <mxPoint x="280.76" y="310" as="targetPoint" />
          </mxGeometry>
        </mxCell>
        <mxCell id="yb0F-JYwEYQ3UP4GpA2z-34" value="" style="endArrow=none;html=1;rounded=0;exitX=0.5;exitY=0;exitDx=0;exitDy=0;" edge="1" parent="1">
          <mxGeometry width="50" height="50" relative="1" as="geometry">
            <mxPoint x="919.83" y="330" as="sourcePoint" />
            <mxPoint x="850" y="320" as="targetPoint" />
            <Array as="points">
              <mxPoint x="920" y="320" />
            </Array>
          </mxGeometry>
        </mxCell>
        <mxCell id="yb0F-JYwEYQ3UP4GpA2z-33" value="" style="endArrow=none;html=1;rounded=0;exitX=0.5;exitY=0;exitDx=0;exitDy=0;entryX=0.5;entryY=1;entryDx=0;entryDy=0;" edge="1" parent="1" target="yb0F-JYwEYQ3UP4GpA2z-44">
          <mxGeometry width="50" height="50" relative="1" as="geometry">
            <mxPoint x="850" y="330" as="sourcePoint" />
            <mxPoint x="850" y="310" as="targetPoint" />
          </mxGeometry>
        </mxCell>
        <mxCell id="YI7VK0BW7LHJZyB_2Pcg-7" value="Delete Song Review" style="rounded=0;whiteSpace=wrap;html=1;" vertex="1" parent="1">
          <mxGeometry x="-416" y="590" width="70" height="30" as="geometry" />
        </mxCell>
        <mxCell id="ZxM0z7NMDJxI3TqQeE6x-49" value="Client" style="rounded=0;whiteSpace=wrap;html=1;" vertex="1" parent="1">
          <mxGeometry x="730" y="120" width="60" height="30" as="geometry" />
        </mxCell>
        <mxCell id="yb0F-JYwEYQ3UP4GpA2z-35" value="Albums" style="rounded=0;whiteSpace=wrap;html=1;" vertex="1" parent="1">
          <mxGeometry x="650" y="170" width="60" height="30" as="geometry" />
        </mxCell>
        <mxCell id="yb0F-JYwEYQ3UP4GpA2z-37" value="Songs" style="rounded=0;whiteSpace=wrap;html=1;" vertex="1" parent="1">
          <mxGeometry x="570" y="170" width="60" height="30" as="geometry" />
        </mxCell>
        <mxCell id="yb0F-JYwEYQ3UP4GpA2z-38" value="Artists" style="rounded=0;whiteSpace=wrap;html=1;" vertex="1" parent="1">
          <mxGeometry x="730" y="170" width="60" height="30" as="geometry" />
        </mxCell>
        <mxCell id="ZxM0z7NMDJxI3TqQeE6x-52" value="Artists" style="rounded=0;whiteSpace=wrap;html=1;" vertex="1" parent="1">
          <mxGeometry x="245" y="170" width="60" height="30" as="geometry" />
        </mxCell>
        <mxCell id="ZxM0z7NMDJxI3TqQeE6x-56" value="" style="endArrow=none;html=1;rounded=0;entryX=0.5;entryY=0;entryDx=0;entryDy=0;" edge="1" parent="1" target="ZxM0z7NMDJxI3TqQeE6x-52">
          <mxGeometry width="50" height="50" relative="1" as="geometry">
            <mxPoint x="200" y="160" as="sourcePoint" />
            <mxPoint x="420" y="160" as="targetPoint" />
            <Array as="points">
              <mxPoint x="275" y="160" />
            </Array>
          </mxGeometry>
        </mxCell>
        <mxCell id="ZxM0z7NMDJxI3TqQeE6x-58" value="" style="endArrow=none;html=1;rounded=0;entryX=0.5;entryY=0;entryDx=0;entryDy=0;" edge="1" parent="1" target="ZxM0z7NMDJxI3TqQeE6x-50">
          <mxGeometry width="50" height="50" relative="1" as="geometry">
            <mxPoint x="200" y="160" as="sourcePoint" />
            <mxPoint x="285" y="180" as="targetPoint" />
            <Array as="points">
              <mxPoint x="125" y="160" />
            </Array>
          </mxGeometry>
        </mxCell>
        <mxCell id="ZxM0z7NMDJxI3TqQeE6x-59" value="" style="rhombus;whiteSpace=wrap;html=1;" vertex="1" parent="1">
          <mxGeometry x="266" y="269" width="30" height="30" as="geometry" />
        </mxCell>
        <mxCell id="yb0F-JYwEYQ3UP4GpA2z-43" value="" style="endArrow=none;html=1;rounded=0;" edge="1" parent="1">
          <mxGeometry width="50" height="50" relative="1" as="geometry">
            <mxPoint x="600" y="160" as="sourcePoint" />
            <mxPoint x="680" y="160" as="targetPoint" />
          </mxGeometry>
        </mxCell>
        <mxCell id="ZxM0z7NMDJxI3TqQeE6x-60" value="" style="rhombus;whiteSpace=wrap;html=1;" vertex="1" parent="1">
          <mxGeometry x="-193" y="280" width="30" height="30" as="geometry" />
        </mxCell>
        <mxCell id="yb0F-JYwEYQ3UP4GpA2z-44" value="" style="rhombus;whiteSpace=wrap;html=1;" vertex="1" parent="1">
          <mxGeometry x="835" y="283" width="30" height="30" as="geometry" />
        </mxCell>
        <mxCell id="yb0F-JYwEYQ3UP4GpA2z-45" value="" style="endArrow=none;html=1;rounded=0;exitX=0.5;exitY=0;exitDx=0;exitDy=0;" edge="1" parent="1">
          <mxGeometry width="50" height="50" relative="1" as="geometry">
            <mxPoint x="849.77" y="310" as="sourcePoint" />
            <mxPoint x="850" y="310" as="targetPoint" />
          </mxGeometry>
        </mxCell>
        <mxCell id="ZxM0z7NMDJxI3TqQeE6x-50" value="Songs" style="rounded=0;whiteSpace=wrap;html=1;" vertex="1" parent="1">
          <mxGeometry x="95" y="170" width="60" height="30" as="geometry" />
        </mxCell>
        <mxCell id="yb0F-JYwEYQ3UP4GpA2z-41" value="" style="endArrow=none;html=1;rounded=0;" edge="1" parent="1">
          <mxGeometry width="50" height="50" relative="1" as="geometry">
            <mxPoint x="680.09" y="170" as="sourcePoint" />
            <mxPoint x="679.9" y="160" as="targetPoint" />
          </mxGeometry>
        </mxCell>
        <mxCell id="yb0F-JYwEYQ3UP4GpA2z-42" value="" style="endArrow=none;html=1;rounded=0;" edge="1" parent="1">
          <mxGeometry width="50" height="50" relative="1" as="geometry">
            <mxPoint x="600.19" y="170" as="sourcePoint" />
            <mxPoint x="600" y="160" as="targetPoint" />
          </mxGeometry>
        </mxCell>
        <mxCell id="ZxM0z7NMDJxI3TqQeE6x-51" value="Albums" style="rounded=0;whiteSpace=wrap;html=1;" vertex="1" parent="1">
          <mxGeometry x="170" y="170" width="60" height="30" as="geometry" />
        </mxCell>
        <mxCell id="ZxM0z7NMDJxI3TqQeE6x-63" value="" style="endArrow=none;html=1;rounded=0;entryX=0.5;entryY=0;entryDx=0;entryDy=0;" edge="1" parent="1" target="yb0F-JYwEYQ3UP4GpA2z-6">
          <mxGeometry width="50" height="50" relative="1" as="geometry">
            <mxPoint x="-178" y="320" as="sourcePoint" />
            <mxPoint x="-98" y="340" as="targetPoint" />
            <Array as="points">
              <mxPoint x="-248" y="320" />
            </Array>
          </mxGeometry>
        </mxCell>
        <mxCell id="yb0F-JYwEYQ3UP4GpA2z-46" value="" style="endArrow=none;html=1;rounded=0;exitX=0.5;exitY=1;exitDx=0;exitDy=0;entryX=0;entryY=0.5;entryDx=0;entryDy=0;" edge="1" parent="1" source="ZxM0z7NMDJxI3TqQeE6x-52" target="yb0F-JYwEYQ3UP4GpA2z-44">
          <mxGeometry width="50" height="50" relative="1" as="geometry">
            <mxPoint x="285" y="220" as="sourcePoint" />
            <mxPoint x="365" y="220" as="targetPoint" />
            <Array as="points">
              <mxPoint x="275" y="260" />
              <mxPoint x="440" y="260" />
              <mxPoint x="440" y="300" />
            </Array>
          </mxGeometry>
        </mxCell>
        <mxCell id="ZxM0z7NMDJxI3TqQeE6x-68" value="" style="endArrow=none;html=1;rounded=0;entryX=0.5;entryY=1;entryDx=0;entryDy=0;exitX=0.5;exitY=0;exitDx=0;exitDy=0;" edge="1" parent="1" source="ZxM0z7NMDJxI3TqQeE6x-60" target="ZxM0z7NMDJxI3TqQeE6x-50">
          <mxGeometry width="50" height="50" relative="1" as="geometry">
            <mxPoint x="370" y="320" as="sourcePoint" />
            <mxPoint x="420" y="270" as="targetPoint" />
            <Array as="points">
              <mxPoint x="-178" y="230" />
              <mxPoint x="-68" y="230" />
              <mxPoint x="40" y="230" />
              <mxPoint x="125" y="230" />
            </Array>
          </mxGeometry>
        </mxCell>
        <mxCell id="ZxM0z7NMDJxI3TqQeE6x-69" value="" style="endArrow=none;html=1;rounded=0;entryX=0.5;entryY=1;entryDx=0;entryDy=0;exitX=1;exitY=0.5;exitDx=0;exitDy=0;" edge="1" parent="1" source="ZxM0z7NMDJxI3TqQeE6x-60" target="yb0F-JYwEYQ3UP4GpA2z-37">
          <mxGeometry width="50" height="50" relative="1" as="geometry">
            <mxPoint x="150" y="290" as="sourcePoint" />
            <mxPoint x="135" y="210" as="targetPoint" />
            <Array as="points">
              <mxPoint x="140" y="295" />
              <mxPoint x="140" y="230" />
              <mxPoint x="600" y="230" />
            </Array>
          </mxGeometry>
        </mxCell>
        <mxCell id="yb0F-JYwEYQ3UP4GpA2z-47" value="" style="endArrow=none;html=1;rounded=0;exitX=0.5;exitY=0;exitDx=0;exitDy=0;entryX=0.5;entryY=1;entryDx=0;entryDy=0;" edge="1" parent="1" source="yb0F-JYwEYQ3UP4GpA2z-44" target="yb0F-JYwEYQ3UP4GpA2z-38">
          <mxGeometry width="50" height="50" relative="1" as="geometry">
            <mxPoint x="670" y="270" as="sourcePoint" />
            <mxPoint x="720" y="220" as="targetPoint" />
            <Array as="points">
              <mxPoint x="850" y="270" />
              <mxPoint x="760" y="270" />
            </Array>
          </mxGeometry>
        </mxCell>
        <mxCell id="yb0F-JYwEYQ3UP4GpA2z-50" value="" style="endArrow=none;html=1;rounded=0;entryX=0.5;entryY=1;entryDx=0;entryDy=0;exitX=0;exitY=0.5;exitDx=0;exitDy=0;" edge="1" parent="1" source="ZxM0z7NMDJxI3TqQeE6x-59" target="ZxM0z7NMDJxI3TqQeE6x-51">
          <mxGeometry width="50" height="50" relative="1" as="geometry">
            <mxPoint x="106" y="270" as="sourcePoint" />
            <mxPoint x="141" y="200" as="targetPoint" />
            <Array as="points">
              <mxPoint x="200" y="284" />
            </Array>
          </mxGeometry>
        </mxCell>
        <mxCell id="yb0F-JYwEYQ3UP4GpA2z-52" value="" style="endArrow=none;html=1;rounded=0;entryX=0.5;entryY=1;entryDx=0;entryDy=0;exitX=1;exitY=0.5;exitDx=0;exitDy=0;" edge="1" parent="1" source="ZxM0z7NMDJxI3TqQeE6x-59" target="yb0F-JYwEYQ3UP4GpA2z-35">
          <mxGeometry width="50" height="50" relative="1" as="geometry">
            <mxPoint x="600" y="270" as="sourcePoint" />
            <mxPoint x="650" y="220" as="targetPoint" />
            <Array as="points">
              <mxPoint x="680" y="284" />
            </Array>
          </mxGeometry>
        </mxCell>
        <mxCell id="ZxM0z7NMDJxI3TqQeE6x-70" value="Add Song" style="rounded=0;whiteSpace=wrap;html=1;" vertex="1" parent="1">
          <mxGeometry x="-495" y="330" width="60" height="30" as="geometry" />
        </mxCell>
        <mxCell id="ZxM0z7NMDJxI3TqQeE6x-71" value="" style="endArrow=none;html=1;rounded=0;exitX=0.5;exitY=0;exitDx=0;exitDy=0;" edge="1" parent="1" source="ZxM0z7NMDJxI3TqQeE6x-192">
          <mxGeometry width="50" height="50" relative="1" as="geometry">
            <mxPoint x="-321" y="330" as="sourcePoint" />
            <mxPoint x="-166" y="230" as="targetPoint" />
            <Array as="points">
              <mxPoint x="-396" y="230" />
            </Array>
          </mxGeometry>
        </mxCell>
        <mxCell id="ZxM0z7NMDJxI3TqQeE6x-76" value="Add Album" style="rounded=0;whiteSpace=wrap;html=1;" vertex="1" parent="1">
          <mxGeometry x="-41" y="330" width="60" height="30" as="geometry" />
        </mxCell>
        <mxCell id="ZxM0z7NMDJxI3TqQeE6x-77" value="" style="endArrow=none;html=1;rounded=0;exitX=0.5;exitY=0;exitDx=0;exitDy=0;" edge="1" parent="1" source="ZxM0z7NMDJxI3TqQeE6x-76">
          <mxGeometry width="50" height="50" relative="1" as="geometry">
            <mxPoint x="230" y="320" as="sourcePoint" />
            <mxPoint x="200" y="270" as="targetPoint" />
            <Array as="points">
              <mxPoint x="-11" y="310" />
              <mxPoint x="200" y="310" />
            </Array>
          </mxGeometry>
        </mxCell>
        <mxCell id="YI7VK0BW7LHJZyB_2Pcg-12" value="" style="endArrow=none;html=1;rounded=0;entryX=0.5;entryY=1;entryDx=0;entryDy=0;exitX=0.5;exitY=0;exitDx=0;exitDy=0;" edge="1" parent="1" source="ZxM0z7NMDJxI3TqQeE6x-24" target="ZxM0z7NMDJxI3TqQeE6x-22">
          <mxGeometry width="50" height="50" relative="1" as="geometry">
            <mxPoint x="-844" y="550" as="sourcePoint" />
            <mxPoint x="-664" y="470" as="targetPoint" />
            <Array as="points">
              <mxPoint x="-769" y="500" />
              <mxPoint x="-664" y="500" />
            </Array>
          </mxGeometry>
        </mxCell>
        <mxCell id="ZxM0z7NMDJxI3TqQeE6x-78" value="Add Artist" style="rounded=0;whiteSpace=wrap;html=1;" vertex="1" parent="1">
          <mxGeometry x="530" y="330" width="60" height="30" as="geometry" />
        </mxCell>
        <mxCell id="ZxM0z7NMDJxI3TqQeE6x-79" value="" style="endArrow=none;html=1;rounded=0;entryX=0.5;entryY=0;entryDx=0;entryDy=0;" edge="1" parent="1" target="ZxM0z7NMDJxI3TqQeE6x-78">
          <mxGeometry width="50" height="50" relative="1" as="geometry">
            <mxPoint x="560" y="300" as="sourcePoint" />
            <mxPoint x="660" y="300" as="targetPoint" />
          </mxGeometry>
        </mxCell>
        <mxCell id="YI7VK0BW7LHJZyB_2Pcg-13" value="" style="endArrow=none;html=1;rounded=0;exitX=0.5;exitY=0;exitDx=0;exitDy=0;" edge="1" parent="1" source="yb0F-JYwEYQ3UP4GpA2z-4">
          <mxGeometry width="50" height="50" relative="1" as="geometry">
            <mxPoint x="-929" y="590" as="sourcePoint" />
            <mxPoint x="-769" y="560" as="targetPoint" />
            <Array as="points">
              <mxPoint x="-844" y="560" />
            </Array>
          </mxGeometry>
        </mxCell>
        <mxCell id="yb0F-JYwEYQ3UP4GpA2z-53" value="View Song Ratings" style="rounded=0;whiteSpace=wrap;html=1;" vertex="1" parent="1">
          <mxGeometry x="-960" y="590" width="70" height="30" as="geometry" />
        </mxCell>
        <mxCell id="yb0F-JYwEYQ3UP4GpA2z-54" value="" style="endArrow=none;html=1;rounded=0;exitX=0.5;exitY=0;exitDx=0;exitDy=0;" edge="1" parent="1" source="yb0F-JYwEYQ3UP4GpA2z-53">
          <mxGeometry width="50" height="50" relative="1" as="geometry">
            <mxPoint x="-929" y="580" as="sourcePoint" />
            <mxPoint x="-844" y="560" as="targetPoint" />
            <Array as="points">
              <mxPoint x="-925" y="560" />
            </Array>
          </mxGeometry>
        </mxCell>
        <mxCell id="YI7VK0BW7LHJZyB_2Pcg-14" value="" style="endArrow=none;html=1;rounded=0;entryX=0.5;entryY=0;entryDx=0;entryDy=0;" edge="1" parent="1" target="ZxM0z7NMDJxI3TqQeE6x-25">
          <mxGeometry width="50" height="50" relative="1" as="geometry">
            <mxPoint x="-769" y="560" as="sourcePoint" />
            <mxPoint x="-774" y="520" as="targetPoint" />
            <Array as="points">
              <mxPoint x="-694" y="560" />
            </Array>
          </mxGeometry>
        </mxCell>
        <mxCell id="yb0F-JYwEYQ3UP4GpA2z-55" value="" style="endArrow=none;html=1;rounded=0;entryX=0.5;entryY=1;entryDx=0;entryDy=0;" edge="1" parent="1" target="YI7VK0BW7LHJZyB_2Pcg-4">
          <mxGeometry width="50" height="50" relative="1" as="geometry">
            <mxPoint x="-524" y="560" as="sourcePoint" />
            <mxPoint x="-514" y="510" as="targetPoint" />
          </mxGeometry>
        </mxCell>
        <mxCell id="yb0F-JYwEYQ3UP4GpA2z-56" value="" style="endArrow=none;html=1;rounded=0;" edge="1" parent="1">
          <mxGeometry width="50" height="50" relative="1" as="geometry">
            <mxPoint x="-604" y="560" as="sourcePoint" />
            <mxPoint x="-294" y="560" as="targetPoint" />
          </mxGeometry>
        </mxCell>
        <mxCell id="yb0F-JYwEYQ3UP4GpA2z-58" value="" style="endArrow=none;html=1;rounded=0;exitX=0.5;exitY=0;exitDx=0;exitDy=0;" edge="1" parent="1" source="ZxM0z7NMDJxI3TqQeE6x-7">
          <mxGeometry width="50" height="50" relative="1" as="geometry">
            <mxPoint x="-619" y="550" as="sourcePoint" />
            <mxPoint x="-604" y="560" as="targetPoint" />
          </mxGeometry>
        </mxCell>
        <mxCell id="YI7VK0BW7LHJZyB_2Pcg-16" value="" style="endArrow=none;html=1;rounded=0;entryX=0.5;entryY=0;entryDx=0;entryDy=0;" edge="1" parent="1" target="YI7VK0BW7LHJZyB_2Pcg-7">
          <mxGeometry width="50" height="50" relative="1" as="geometry">
            <mxPoint x="-381" y="560" as="sourcePoint" />
            <mxPoint x="-381" y="590" as="targetPoint" />
          </mxGeometry>
        </mxCell>
        <mxCell id="ZxM0z7NMDJxI3TqQeE6x-81" value="Write Comment" style="rounded=0;whiteSpace=wrap;html=1;" vertex="1" parent="1">
          <mxGeometry x="-204" y="750" width="60" height="30" as="geometry" />
        </mxCell>
        <mxCell id="ZxM0z7NMDJxI3TqQeE6x-82" value="Edit Comment" style="rounded=0;whiteSpace=wrap;html=1;" vertex="1" parent="1">
          <mxGeometry x="-58" y="750" width="60" height="30" as="geometry" />
        </mxCell>
        <mxCell id="yb0F-JYwEYQ3UP4GpA2z-62" value="Select Comment" style="rounded=0;whiteSpace=wrap;html=1;" vertex="1" parent="1">
          <mxGeometry x="-279" y="750" width="60" height="30" as="geometry" />
        </mxCell>
        <mxCell id="yb0F-JYwEYQ3UP4GpA2z-60" value="" style="endArrow=none;html=1;rounded=0;exitX=0.5;exitY=0;exitDx=0;exitDy=0;" edge="1" parent="1">
          <mxGeometry width="50" height="50" relative="1" as="geometry">
            <mxPoint x="-455.25" y="590" as="sourcePoint" />
            <mxPoint x="-455.25" y="560" as="targetPoint" />
          </mxGeometry>
        </mxCell>
        <mxCell id="yb0F-JYwEYQ3UP4GpA2z-59" value="" style="endArrow=none;html=1;rounded=0;exitX=0.5;exitY=0;exitDx=0;exitDy=0;" edge="1" parent="1">
          <mxGeometry width="50" height="50" relative="1" as="geometry">
            <mxPoint x="-524.25" y="590" as="sourcePoint" />
            <mxPoint x="-524.25" y="560" as="targetPoint" />
          </mxGeometry>
        </mxCell>
        <mxCell id="yb0F-JYwEYQ3UP4GpA2z-61" value="" style="endArrow=none;html=1;rounded=0;exitX=0.5;exitY=0;exitDx=0;exitDy=0;" edge="1" parent="1">
          <mxGeometry width="50" height="50" relative="1" as="geometry">
            <mxPoint x="-294.25" y="590" as="sourcePoint" />
            <mxPoint x="-294.25" y="560" as="targetPoint" />
          </mxGeometry>
        </mxCell>
        <mxCell id="ZxM0z7NMDJxI3TqQeE6x-83" value="Delete Comment" style="rounded=0;whiteSpace=wrap;html=1;" vertex="1" parent="1">
          <mxGeometry x="-131" y="750" width="60" height="30" as="geometry" />
        </mxCell>
        <mxCell id="ZxM0z7NMDJxI3TqQeE6x-84" value="Write Album Review" style="rounded=0;whiteSpace=wrap;html=1;" vertex="1" parent="1">
          <mxGeometry x="148" y="590" width="70" height="30" as="geometry" />
        </mxCell>
        <mxCell id="ZxM0z7NMDJxI3TqQeE6x-85" value="Give Album Rating" style="rounded=0;whiteSpace=wrap;html=1;" vertex="1" parent="1">
          <mxGeometry x="-104.5" y="590" width="70" height="30" as="geometry" />
        </mxCell>
        <mxCell id="ZxM0z7NMDJxI3TqQeE6x-86" value="Album Rating" style="rounded=0;whiteSpace=wrap;html=1;" vertex="1" parent="1">
          <mxGeometry x="169" y="440" width="60" height="30" as="geometry" />
        </mxCell>
        <mxCell id="ZxM0z7NMDJxI3TqQeE6x-87" value="Edit Album Rating" style="rounded=0;whiteSpace=wrap;html=1;" vertex="1" parent="1">
          <mxGeometry x="-22" y="590" width="64" height="30" as="geometry" />
        </mxCell>
        <mxCell id="ZxM0z7NMDJxI3TqQeE6x-88" value="Delete Album Rating" style="rounded=0;whiteSpace=wrap;html=1;" vertex="1" parent="1">
          <mxGeometry x="49" y="590" width="82" height="30" as="geometry" />
        </mxCell>
        <mxCell id="ZxM0z7NMDJxI3TqQeE6x-89" value="Edit Album Review" style="rounded=0;whiteSpace=wrap;html=1;" vertex="1" parent="1">
          <mxGeometry x="302" y="590" width="65" height="30" as="geometry" />
        </mxCell>
        <mxCell id="ZxM0z7NMDJxI3TqQeE6x-91" value="Select Song Review" style="rounded=0;whiteSpace=wrap;html=1;" vertex="1" parent="1">
          <mxGeometry x="450" y="590" width="90" height="30" as="geometry" />
        </mxCell>
        <mxCell id="ZxM0z7NMDJxI3TqQeE6x-92" value="Album Review" style="rounded=0;whiteSpace=wrap;html=1;" vertex="1" parent="1">
          <mxGeometry x="339" y="440" width="70" height="30" as="geometry" />
        </mxCell>
        <mxCell id="ZxM0z7NMDJxI3TqQeE6x-93" value="" style="endArrow=none;html=1;rounded=0;exitX=0.5;exitY=0;exitDx=0;exitDy=0;" edge="1" parent="1" source="ZxM0z7NMDJxI3TqQeE6x-92">
          <mxGeometry width="50" height="50" relative="1" as="geometry">
            <mxPoint x="354" y="470" as="sourcePoint" />
            <mxPoint x="281" y="420" as="targetPoint" />
            <Array as="points">
              <mxPoint x="374" y="420" />
            </Array>
          </mxGeometry>
        </mxCell>
        <mxCell id="ZxM0z7NMDJxI3TqQeE6x-94" value="View Album Review" style="rounded=0;whiteSpace=wrap;html=1;" vertex="1" parent="1">
          <mxGeometry x="223" y="590" width="75" height="30" as="geometry" />
        </mxCell>
        <mxCell id="ZxM0z7NMDJxI3TqQeE6x-95" value="Delete Album Review" style="rounded=0;whiteSpace=wrap;html=1;" vertex="1" parent="1">
          <mxGeometry x="371" y="590" width="75" height="30" as="geometry" />
        </mxCell>
        <mxCell id="ZxM0z7NMDJxI3TqQeE6x-97" value="" style="endArrow=none;html=1;rounded=0;exitX=0.5;exitY=0;exitDx=0;exitDy=0;" edge="1" parent="1" source="ZxM0z7NMDJxI3TqQeE6x-85">
          <mxGeometry width="50" height="50" relative="1" as="geometry">
            <mxPoint x="16" y="590" as="sourcePoint" />
            <mxPoint x="90" y="560" as="targetPoint" />
            <Array as="points">
              <mxPoint x="-70" y="560" />
            </Array>
          </mxGeometry>
        </mxCell>
        <mxCell id="ZxM0z7NMDJxI3TqQeE6x-98" value="View Album Rating" style="rounded=0;whiteSpace=wrap;html=1;" vertex="1" parent="1">
          <mxGeometry x="-183.5" y="590" width="70" height="30" as="geometry" />
        </mxCell>
        <mxCell id="ZxM0z7NMDJxI3TqQeE6x-99" value="" style="endArrow=none;html=1;rounded=0;exitX=0.5;exitY=0;exitDx=0;exitDy=0;" edge="1" parent="1" source="ZxM0z7NMDJxI3TqQeE6x-98">
          <mxGeometry width="50" height="50" relative="1" as="geometry">
            <mxPoint x="-152.5" y="580" as="sourcePoint" />
            <mxPoint x="-67.5" y="560" as="targetPoint" />
            <Array as="points">
              <mxPoint x="-148.5" y="560" />
            </Array>
          </mxGeometry>
        </mxCell>
        <mxCell id="ZxM0z7NMDJxI3TqQeE6x-101" value="" style="endArrow=none;html=1;rounded=0;entryX=0.5;entryY=1;entryDx=0;entryDy=0;" edge="1" parent="1" target="ZxM0z7NMDJxI3TqQeE6x-92">
          <mxGeometry width="50" height="50" relative="1" as="geometry">
            <mxPoint x="374" y="560" as="sourcePoint" />
            <mxPoint x="443" y="510" as="targetPoint" />
          </mxGeometry>
        </mxCell>
        <mxCell id="ZxM0z7NMDJxI3TqQeE6x-102" value="" style="endArrow=none;html=1;rounded=0;" edge="1" parent="1">
          <mxGeometry width="50" height="50" relative="1" as="geometry">
            <mxPoint x="183" y="560" as="sourcePoint" />
            <mxPoint x="493" y="560" as="targetPoint" />
          </mxGeometry>
        </mxCell>
        <mxCell id="ZxM0z7NMDJxI3TqQeE6x-103" value="" style="endArrow=none;html=1;rounded=0;exitX=0.5;exitY=0;exitDx=0;exitDy=0;" edge="1" parent="1" source="ZxM0z7NMDJxI3TqQeE6x-84">
          <mxGeometry width="50" height="50" relative="1" as="geometry">
            <mxPoint x="168" y="550" as="sourcePoint" />
            <mxPoint x="183" y="560" as="targetPoint" />
          </mxGeometry>
        </mxCell>
        <mxCell id="ZxM0z7NMDJxI3TqQeE6x-104" value="" style="endArrow=none;html=1;rounded=0;entryX=0.5;entryY=0;entryDx=0;entryDy=0;" edge="1" parent="1" target="ZxM0z7NMDJxI3TqQeE6x-95">
          <mxGeometry width="50" height="50" relative="1" as="geometry">
            <mxPoint x="408" y="560" as="sourcePoint" />
            <mxPoint x="406" y="590" as="targetPoint" />
          </mxGeometry>
        </mxCell>
        <mxCell id="ZxM0z7NMDJxI3TqQeE6x-105" value="" style="endArrow=none;html=1;rounded=0;exitX=0.5;exitY=0;exitDx=0;exitDy=0;" edge="1" parent="1">
          <mxGeometry width="50" height="50" relative="1" as="geometry">
            <mxPoint x="331.75" y="590" as="sourcePoint" />
            <mxPoint x="331.75" y="560" as="targetPoint" />
          </mxGeometry>
        </mxCell>
        <mxCell id="ZxM0z7NMDJxI3TqQeE6x-106" value="" style="endArrow=none;html=1;rounded=0;exitX=0.5;exitY=0;exitDx=0;exitDy=0;" edge="1" parent="1">
          <mxGeometry width="50" height="50" relative="1" as="geometry">
            <mxPoint x="262.75" y="590" as="sourcePoint" />
            <mxPoint x="262.75" y="560" as="targetPoint" />
          </mxGeometry>
        </mxCell>
        <mxCell id="ZxM0z7NMDJxI3TqQeE6x-107" value="" style="endArrow=none;html=1;rounded=0;exitX=0.5;exitY=0;exitDx=0;exitDy=0;" edge="1" parent="1">
          <mxGeometry width="50" height="50" relative="1" as="geometry">
            <mxPoint x="492.75" y="590" as="sourcePoint" />
            <mxPoint x="492.75" y="560" as="targetPoint" />
          </mxGeometry>
        </mxCell>
        <mxCell id="yb0F-JYwEYQ3UP4GpA2z-69" value="" style="endArrow=none;html=1;rounded=0;entryX=0.5;entryY=1;entryDx=0;entryDy=0;exitX=1;exitY=0.5;exitDx=0;exitDy=0;" edge="1" parent="1" source="ZxM0z7NMDJxI3TqQeE6x-117" target="ZxM0z7NMDJxI3TqQeE6x-91">
          <mxGeometry width="50" height="50" relative="1" as="geometry">
            <mxPoint x="42" y="660" as="sourcePoint" />
            <mxPoint x="552" y="690" as="targetPoint" />
            <Array as="points">
              <mxPoint x="20" y="655" />
              <mxPoint x="20" y="640" />
              <mxPoint x="495" y="640" />
            </Array>
          </mxGeometry>
        </mxCell>
        <mxCell id="yb0F-JYwEYQ3UP4GpA2z-70" value="" style="endArrow=none;html=1;rounded=0;entryX=0.5;entryY=1;entryDx=0;entryDy=0;exitX=0.5;exitY=0;exitDx=0;exitDy=0;" edge="1" parent="1" source="ZxM0z7NMDJxI3TqQeE6x-117">
          <mxGeometry width="50" height="50" relative="1" as="geometry">
            <mxPoint x="-144" y="680" as="sourcePoint" />
            <mxPoint x="-174" y="670" as="targetPoint" />
          </mxGeometry>
        </mxCell>
        <mxCell id="yb0F-JYwEYQ3UP4GpA2z-71" value="" style="endArrow=none;html=1;rounded=0;entryX=0.5;entryY=1;entryDx=0;entryDy=0;" edge="1" parent="1" target="ZxM0z7NMDJxI3TqQeE6x-8">
          <mxGeometry width="50" height="50" relative="1" as="geometry">
            <mxPoint x="-174" y="740" as="sourcePoint" />
            <mxPoint x="-94" y="740" as="targetPoint" />
          </mxGeometry>
        </mxCell>
        <mxCell id="yb0F-JYwEYQ3UP4GpA2z-72" value="" style="endArrow=none;html=1;rounded=0;" edge="1" parent="1">
          <mxGeometry width="50" height="50" relative="1" as="geometry">
            <mxPoint x="-250" y="740" as="sourcePoint" />
            <mxPoint x="-27" y="740" as="targetPoint" />
          </mxGeometry>
        </mxCell>
        <mxCell id="yb0F-JYwEYQ3UP4GpA2z-73" value="" style="endArrow=none;html=1;rounded=0;exitX=0.5;exitY=0;exitDx=0;exitDy=0;" edge="1" parent="1" source="ZxM0z7NMDJxI3TqQeE6x-82">
          <mxGeometry width="50" height="50" relative="1" as="geometry">
            <mxPoint x="-148" y="790" as="sourcePoint" />
            <mxPoint x="-28" y="740" as="targetPoint" />
          </mxGeometry>
        </mxCell>
        <mxCell id="yb0F-JYwEYQ3UP4GpA2z-74" value="" style="endArrow=none;html=1;rounded=0;exitX=0.5;exitY=0;exitDx=0;exitDy=0;" edge="1" parent="1" source="ZxM0z7NMDJxI3TqQeE6x-83">
          <mxGeometry width="50" height="50" relative="1" as="geometry">
            <mxPoint x="-94" y="750" as="sourcePoint" />
            <mxPoint x="-101" y="740" as="targetPoint" />
          </mxGeometry>
        </mxCell>
        <mxCell id="ZxM0z7NMDJxI3TqQeE6x-110" value="Votes" style="rounded=0;whiteSpace=wrap;html=1;" vertex="1" parent="1">
          <mxGeometry x="153" y="690" width="60" height="30" as="geometry" />
        </mxCell>
        <mxCell id="yb0F-JYwEYQ3UP4GpA2z-77" value="" style="endArrow=none;html=1;rounded=0;exitX=0.5;exitY=0;exitDx=0;exitDy=0;" edge="1" parent="1">
          <mxGeometry width="50" height="50" relative="1" as="geometry">
            <mxPoint x="-249.24" y="750" as="sourcePoint" />
            <mxPoint x="-249.24" y="740" as="targetPoint" />
          </mxGeometry>
        </mxCell>
        <mxCell id="ZxM0z7NMDJxI3TqQeE6x-111" value="Give Upvote" style="rounded=0;whiteSpace=wrap;html=1;" vertex="1" parent="1">
          <mxGeometry x="70" y="750" width="60" height="30" as="geometry" />
        </mxCell>
        <mxCell id="yb0F-JYwEYQ3UP4GpA2z-76" value="" style="endArrow=none;html=1;rounded=0;exitX=0.5;exitY=0;exitDx=0;exitDy=0;" edge="1" parent="1">
          <mxGeometry width="50" height="50" relative="1" as="geometry">
            <mxPoint x="-174" y="750" as="sourcePoint" />
            <mxPoint x="-174" y="740" as="targetPoint" />
          </mxGeometry>
        </mxCell>
        <mxCell id="ZxM0z7NMDJxI3TqQeE6x-112" value="Give Downvote" style="rounded=0;whiteSpace=wrap;html=1;" vertex="1" parent="1">
          <mxGeometry x="153" y="750" width="60" height="30" as="geometry" />
        </mxCell>
        <mxCell id="ZxM0z7NMDJxI3TqQeE6x-116" value="" style="rhombus;whiteSpace=wrap;html=1;" vertex="1" parent="1">
          <mxGeometry x="168" y="650" width="30" height="30" as="geometry" />
        </mxCell>
        <mxCell id="ZxM0z7NMDJxI3TqQeE6x-118" value="" style="endArrow=none;html=1;rounded=0;entryX=0.5;entryY=1;entryDx=0;entryDy=0;exitX=0.5;exitY=0;exitDx=0;exitDy=0;" edge="1" parent="1" source="ZxM0z7NMDJxI3TqQeE6x-8" target="ZxM0z7NMDJxI3TqQeE6x-117">
          <mxGeometry width="50" height="50" relative="1" as="geometry">
            <mxPoint x="-174" y="690" as="sourcePoint" />
            <mxPoint x="-174" y="670" as="targetPoint" />
          </mxGeometry>
        </mxCell>
        <mxCell id="ZxM0z7NMDJxI3TqQeE6x-117" value="" style="rhombus;whiteSpace=wrap;html=1;" vertex="1" parent="1">
          <mxGeometry x="-189" y="640" width="30" height="30" as="geometry" />
        </mxCell>
        <mxCell id="ZxM0z7NMDJxI3TqQeE6x-119" value="" style="endArrow=none;html=1;rounded=0;entryX=0.5;entryY=1;entryDx=0;entryDy=0;exitX=0.5;exitY=0;exitDx=0;exitDy=0;" edge="1" parent="1" source="ZxM0z7NMDJxI3TqQeE6x-110" target="ZxM0z7NMDJxI3TqQeE6x-116">
          <mxGeometry width="50" height="50" relative="1" as="geometry">
            <mxPoint x="-128" y="700" as="sourcePoint" />
            <mxPoint x="-128" y="680" as="targetPoint" />
          </mxGeometry>
        </mxCell>
        <mxCell id="ZxM0z7NMDJxI3TqQeE6x-120" value="" style="endArrow=none;html=1;rounded=0;exitX=1;exitY=0.5;exitDx=0;exitDy=0;entryX=0.5;entryY=1;entryDx=0;entryDy=0;" edge="1" parent="1" source="ZxM0z7NMDJxI3TqQeE6x-116" target="ZxM0z7NMDJxI3TqQeE6x-91">
          <mxGeometry width="50" height="50" relative="1" as="geometry">
            <mxPoint x="-118" y="710" as="sourcePoint" />
            <mxPoint x="492" y="640" as="targetPoint" />
            <Array as="points">
              <mxPoint x="495" y="665" />
            </Array>
          </mxGeometry>
        </mxCell>
        <mxCell id="ZxM0z7NMDJxI3TqQeE6x-121" value="" style="endArrow=none;html=1;rounded=0;exitX=0.5;exitY=0;exitDx=0;exitDy=0;" edge="1" parent="1" source="ZxM0z7NMDJxI3TqQeE6x-116">
          <mxGeometry width="50" height="50" relative="1" as="geometry">
            <mxPoint x="192" y="590" as="sourcePoint" />
            <mxPoint x="-293" y="630" as="targetPoint" />
            <Array as="points">
              <mxPoint x="80" y="650" />
              <mxPoint x="80" y="630" />
            </Array>
          </mxGeometry>
        </mxCell>
        <mxCell id="ZxM0z7NMDJxI3TqQeE6x-122" value="Producers" style="rounded=0;whiteSpace=wrap;html=1;" vertex="1" parent="1">
          <mxGeometry x="320" y="170" width="60" height="30" as="geometry" />
        </mxCell>
        <mxCell id="ZxM0z7NMDJxI3TqQeE6x-124" value="Producers" style="rounded=0;whiteSpace=wrap;html=1;" vertex="1" parent="1">
          <mxGeometry x="810" y="170" width="60" height="30" as="geometry" />
        </mxCell>
        <mxCell id="ZxM0z7NMDJxI3TqQeE6x-125" value="" style="endArrow=none;html=1;rounded=0;entryX=0.5;entryY=0;entryDx=0;entryDy=0;" edge="1" parent="1" target="ZxM0z7NMDJxI3TqQeE6x-122">
          <mxGeometry width="50" height="50" relative="1" as="geometry">
            <mxPoint x="270" y="160" as="sourcePoint" />
            <mxPoint x="250" y="150" as="targetPoint" />
            <Array as="points">
              <mxPoint x="350" y="160" />
            </Array>
          </mxGeometry>
        </mxCell>
        <mxCell id="ZxM0z7NMDJxI3TqQeE6x-126" value="" style="endArrow=none;html=1;rounded=0;entryX=0.5;entryY=1;entryDx=0;entryDy=0;exitX=0.5;exitY=0;exitDx=0;exitDy=0;" edge="1" parent="1" source="yb0F-JYwEYQ3UP4GpA2z-38" target="ZxM0z7NMDJxI3TqQeE6x-49">
          <mxGeometry width="50" height="50" relative="1" as="geometry">
            <mxPoint x="755" y="160" as="sourcePoint" />
            <mxPoint x="644" y="110" as="targetPoint" />
          </mxGeometry>
        </mxCell>
        <mxCell id="ZxM0z7NMDJxI3TqQeE6x-127" value="" style="endArrow=none;html=1;rounded=0;entryX=0.5;entryY=0;entryDx=0;entryDy=0;" edge="1" parent="1" target="ZxM0z7NMDJxI3TqQeE6x-124">
          <mxGeometry width="50" height="50" relative="1" as="geometry">
            <mxPoint x="750" y="160" as="sourcePoint" />
            <mxPoint x="610" y="110" as="targetPoint" />
            <Array as="points">
              <mxPoint x="840" y="160" />
            </Array>
          </mxGeometry>
        </mxCell>
        <mxCell id="ZxM0z7NMDJxI3TqQeE6x-128" value="Search Producer" style="rounded=0;whiteSpace=wrap;html=1;" vertex="1" parent="1">
          <mxGeometry x="1220" y="330" width="60" height="30" as="geometry" />
        </mxCell>
        <mxCell id="ZxM0z7NMDJxI3TqQeE6x-129" value="Select Producer" style="rounded=0;whiteSpace=wrap;html=1;" vertex="1" parent="1">
          <mxGeometry x="1290" y="330" width="60" height="30" as="geometry" />
        </mxCell>
        <mxCell id="ZxM0z7NMDJxI3TqQeE6x-130" value="" style="endArrow=none;html=1;rounded=0;exitX=0.5;exitY=0;exitDx=0;exitDy=0;" edge="1" parent="1">
          <mxGeometry width="50" height="50" relative="1" as="geometry">
            <mxPoint x="1249.83" y="330" as="sourcePoint" />
            <mxPoint x="1320" y="320" as="targetPoint" />
            <Array as="points">
              <mxPoint x="1250" y="320" />
            </Array>
          </mxGeometry>
        </mxCell>
        <mxCell id="ZxM0z7NMDJxI3TqQeE6x-131" value="View Producers" style="rounded=0;whiteSpace=wrap;html=1;" vertex="1" parent="1">
          <mxGeometry x="1360" y="330" width="60" height="30" as="geometry" />
        </mxCell>
        <mxCell id="ZxM0z7NMDJxI3TqQeE6x-132" value="" style="endArrow=none;html=1;rounded=0;exitX=0.5;exitY=0;exitDx=0;exitDy=0;" edge="1" parent="1">
          <mxGeometry width="50" height="50" relative="1" as="geometry">
            <mxPoint x="1389.83" y="330" as="sourcePoint" />
            <mxPoint x="1320" y="320" as="targetPoint" />
            <Array as="points">
              <mxPoint x="1390" y="320" />
            </Array>
          </mxGeometry>
        </mxCell>
        <mxCell id="ZxM0z7NMDJxI3TqQeE6x-133" value="" style="endArrow=none;html=1;rounded=0;exitX=0.5;exitY=0;exitDx=0;exitDy=0;entryX=0.5;entryY=1;entryDx=0;entryDy=0;" edge="1" parent="1" target="ZxM0z7NMDJxI3TqQeE6x-134">
          <mxGeometry width="50" height="50" relative="1" as="geometry">
            <mxPoint x="1320" y="330" as="sourcePoint" />
            <mxPoint x="1320" y="310" as="targetPoint" />
          </mxGeometry>
        </mxCell>
        <mxCell id="ZxM0z7NMDJxI3TqQeE6x-134" value="" style="rhombus;whiteSpace=wrap;html=1;" vertex="1" parent="1">
          <mxGeometry x="1305" y="285" width="30" height="30" as="geometry" />
        </mxCell>
        <mxCell id="ZxM0z7NMDJxI3TqQeE6x-135" value="" style="endArrow=none;html=1;rounded=0;exitX=0.5;exitY=0;exitDx=0;exitDy=0;" edge="1" parent="1">
          <mxGeometry width="50" height="50" relative="1" as="geometry">
            <mxPoint x="1319.77" y="310" as="sourcePoint" />
            <mxPoint x="1320" y="310" as="targetPoint" />
          </mxGeometry>
        </mxCell>
        <mxCell id="ZxM0z7NMDJxI3TqQeE6x-136" value="Add Producer" style="rounded=0;whiteSpace=wrap;html=1;" vertex="1" parent="1">
          <mxGeometry x="1000" y="330" width="60" height="30" as="geometry" />
        </mxCell>
        <mxCell id="ZxM0z7NMDJxI3TqQeE6x-137" value="" style="endArrow=none;html=1;rounded=0;entryX=0.5;entryY=1;entryDx=0;entryDy=0;exitX=0.5;exitY=0;exitDx=0;exitDy=0;" edge="1" parent="1" source="ZxM0z7NMDJxI3TqQeE6x-134" target="ZxM0z7NMDJxI3TqQeE6x-124">
          <mxGeometry width="50" height="50" relative="1" as="geometry">
            <mxPoint x="880" y="350" as="sourcePoint" />
            <mxPoint x="930" y="300" as="targetPoint" />
            <Array as="points">
              <mxPoint x="1320" y="240" />
              <mxPoint x="840" y="240" />
            </Array>
          </mxGeometry>
        </mxCell>
        <mxCell id="ZxM0z7NMDJxI3TqQeE6x-138" value="" style="endArrow=none;html=1;rounded=0;entryX=0.5;entryY=1;entryDx=0;entryDy=0;exitX=0;exitY=0.5;exitDx=0;exitDy=0;" edge="1" parent="1" source="ZxM0z7NMDJxI3TqQeE6x-134" target="ZxM0z7NMDJxI3TqQeE6x-122">
          <mxGeometry width="50" height="50" relative="1" as="geometry">
            <mxPoint x="440" y="350" as="sourcePoint" />
            <mxPoint x="490" y="300" as="targetPoint" />
            <Array as="points">
              <mxPoint x="1030" y="300" />
              <mxPoint x="1030" y="250" />
              <mxPoint x="350" y="250" />
            </Array>
          </mxGeometry>
        </mxCell>
        <mxCell id="ZxM0z7NMDJxI3TqQeE6x-139" value="" style="endArrow=none;html=1;rounded=0;exitX=0.5;exitY=0;exitDx=0;exitDy=0;" edge="1" parent="1" source="ZxM0z7NMDJxI3TqQeE6x-136">
          <mxGeometry width="50" height="50" relative="1" as="geometry">
            <mxPoint x="750" y="310" as="sourcePoint" />
            <mxPoint x="1030" y="300" as="targetPoint" />
          </mxGeometry>
        </mxCell>
        <mxCell id="ZxM0z7NMDJxI3TqQeE6x-140" value="" style="endArrow=none;html=1;rounded=0;entryX=0.5;entryY=1;entryDx=0;entryDy=0;exitX=0.056;exitY=0.509;exitDx=0;exitDy=0;exitPerimeter=0;" edge="1" parent="1" source="ZxM0z7NMDJxI3TqQeE6x-117" target="YI7VK0BW7LHJZyB_2Pcg-8">
          <mxGeometry width="50" height="50" relative="1" as="geometry">
            <mxPoint x="-304" y="670" as="sourcePoint" />
            <mxPoint x="-254" y="620" as="targetPoint" />
            <Array as="points">
              <mxPoint x="-294" y="655" />
            </Array>
          </mxGeometry>
        </mxCell>
        <mxCell id="ZxM0z7NMDJxI3TqQeE6x-141" value="" style="endArrow=none;html=1;rounded=0;entryX=0.5;entryY=1;entryDx=0;entryDy=0;exitX=0.5;exitY=0;exitDx=0;exitDy=0;" edge="1" parent="1" source="ZxM0z7NMDJxI3TqQeE6x-86" target="yb0F-JYwEYQ3UP4GpA2z-23">
          <mxGeometry width="50" height="50" relative="1" as="geometry">
            <mxPoint x="281" y="420" as="sourcePoint" />
            <mxPoint x="341" y="470" as="targetPoint" />
            <Array as="points">
              <mxPoint x="199" y="420" />
              <mxPoint x="281" y="420" />
            </Array>
          </mxGeometry>
        </mxCell>
        <mxCell id="ZxM0z7NMDJxI3TqQeE6x-143" value="" style="endArrow=none;html=1;rounded=0;entryX=0.5;entryY=1;entryDx=0;entryDy=0;" edge="1" parent="1" target="ZxM0z7NMDJxI3TqQeE6x-86">
          <mxGeometry width="50" height="50" relative="1" as="geometry">
            <mxPoint x="-30" y="560" as="sourcePoint" />
            <mxPoint x="210" y="460" as="targetPoint" />
            <Array as="points">
              <mxPoint x="-30" y="520" />
              <mxPoint x="200" y="520" />
            </Array>
          </mxGeometry>
        </mxCell>
        <mxCell id="ZxM0z7NMDJxI3TqQeE6x-153" value="" style="endArrow=none;html=1;rounded=0;exitX=0.5;exitY=0;exitDx=0;exitDy=0;" edge="1" parent="1" source="ZxM0z7NMDJxI3TqQeE6x-87">
          <mxGeometry width="50" height="50" relative="1" as="geometry">
            <mxPoint x="-10" y="510" as="sourcePoint" />
            <mxPoint x="10" y="560" as="targetPoint" />
          </mxGeometry>
        </mxCell>
        <mxCell id="ZxM0z7NMDJxI3TqQeE6x-154" value="View Songs" style="rounded=0;whiteSpace=wrap;html=1;" vertex="1" parent="1">
          <mxGeometry x="784.5" y="440" width="60" height="30" as="geometry" />
        </mxCell>
        <mxCell id="ZxM0z7NMDJxI3TqQeE6x-155" value="View Albums" style="rounded=0;whiteSpace=wrap;html=1;" vertex="1" parent="1">
          <mxGeometry x="855.5" y="440" width="60" height="30" as="geometry" />
        </mxCell>
        <mxCell id="ZxM0z7NMDJxI3TqQeE6x-156" value="" style="endArrow=none;html=1;rounded=0;entryX=0.5;entryY=1;entryDx=0;entryDy=0;" edge="1" parent="1" target="yb0F-JYwEYQ3UP4GpA2z-29">
          <mxGeometry width="50" height="50" relative="1" as="geometry">
            <mxPoint x="850" y="420" as="sourcePoint" />
            <mxPoint x="830" y="430" as="targetPoint" />
          </mxGeometry>
        </mxCell>
        <mxCell id="ZxM0z7NMDJxI3TqQeE6x-158" value="" style="endArrow=none;html=1;rounded=0;exitX=0.5;exitY=0;exitDx=0;exitDy=0;" edge="1" parent="1" source="ZxM0z7NMDJxI3TqQeE6x-155">
          <mxGeometry width="50" height="50" relative="1" as="geometry">
            <mxPoint x="780" y="480" as="sourcePoint" />
            <mxPoint x="850" y="420" as="targetPoint" />
            <Array as="points">
              <mxPoint x="886" y="420" />
            </Array>
          </mxGeometry>
        </mxCell>
        <mxCell id="ZxM0z7NMDJxI3TqQeE6x-159" value="" style="endArrow=none;html=1;rounded=0;exitX=0.5;exitY=0;exitDx=0;exitDy=0;" edge="1" parent="1" source="ZxM0z7NMDJxI3TqQeE6x-154">
          <mxGeometry width="50" height="50" relative="1" as="geometry">
            <mxPoint x="896" y="450" as="sourcePoint" />
            <mxPoint x="850" y="420" as="targetPoint" />
            <Array as="points">
              <mxPoint x="815" y="420" />
            </Array>
          </mxGeometry>
        </mxCell>
        <mxCell id="ZxM0z7NMDJxI3TqQeE6x-160" value="View Songs Produced" style="rounded=0;whiteSpace=wrap;html=1;" vertex="1" parent="1">
          <mxGeometry x="1244" y="440" width="70.5" height="30" as="geometry" />
        </mxCell>
        <mxCell id="ZxM0z7NMDJxI3TqQeE6x-161" value="View Albums Produced" style="rounded=0;whiteSpace=wrap;html=1;" vertex="1" parent="1">
          <mxGeometry x="1325.5" y="440" width="78.5" height="30" as="geometry" />
        </mxCell>
        <mxCell id="ZxM0z7NMDJxI3TqQeE6x-162" value="" style="endArrow=none;html=1;rounded=0;entryX=0.5;entryY=1;entryDx=0;entryDy=0;" edge="1" parent="1">
          <mxGeometry width="50" height="50" relative="1" as="geometry">
            <mxPoint x="1320" y="420" as="sourcePoint" />
            <mxPoint x="1320" y="360" as="targetPoint" />
          </mxGeometry>
        </mxCell>
        <mxCell id="ZxM0z7NMDJxI3TqQeE6x-165" value="" style="endArrow=none;html=1;rounded=0;exitX=0.5;exitY=0;exitDx=0;exitDy=0;" edge="1" parent="1" source="ZxM0z7NMDJxI3TqQeE6x-160">
          <mxGeometry width="50" height="50" relative="1" as="geometry">
            <mxPoint x="1294" y="450" as="sourcePoint" />
            <mxPoint x="1321" y="420" as="targetPoint" />
            <Array as="points">
              <mxPoint x="1279" y="420" />
            </Array>
          </mxGeometry>
        </mxCell>
        <mxCell id="ZxM0z7NMDJxI3TqQeE6x-166" value="" style="endArrow=none;html=1;rounded=0;exitX=0.5;exitY=0;exitDx=0;exitDy=0;" edge="1" parent="1" source="ZxM0z7NMDJxI3TqQeE6x-161">
          <mxGeometry width="50" height="50" relative="1" as="geometry">
            <mxPoint x="1289" y="450" as="sourcePoint" />
            <mxPoint x="1320" y="420" as="targetPoint" />
            <Array as="points">
              <mxPoint x="1365" y="420" />
            </Array>
          </mxGeometry>
        </mxCell>
        <mxCell id="ZxM0z7NMDJxI3TqQeE6x-168" value="Profiles" style="rounded=0;whiteSpace=wrap;html=1;" vertex="1" parent="1">
          <mxGeometry x="890" y="170" width="60" height="30" as="geometry" />
        </mxCell>
        <mxCell id="ZxM0z7NMDJxI3TqQeE6x-170" value="Profiles" style="rounded=0;whiteSpace=wrap;html=1;" vertex="1" parent="1">
          <mxGeometry x="393" y="170" width="60" height="30" as="geometry" />
        </mxCell>
        <mxCell id="ZxM0z7NMDJxI3TqQeE6x-171" value="" style="endArrow=none;html=1;rounded=0;exitX=0.5;exitY=0;exitDx=0;exitDy=0;" edge="1" parent="1" source="ZxM0z7NMDJxI3TqQeE6x-170">
          <mxGeometry width="50" height="50" relative="1" as="geometry">
            <mxPoint x="320" y="300" as="sourcePoint" />
            <mxPoint x="350" y="160" as="targetPoint" />
            <Array as="points">
              <mxPoint x="423" y="160" />
            </Array>
          </mxGeometry>
        </mxCell>
        <mxCell id="ZxM0z7NMDJxI3TqQeE6x-172" value="" style="endArrow=none;html=1;rounded=0;exitX=0.5;exitY=1;exitDx=0;exitDy=0;" edge="1" parent="1" source="ZxM0z7NMDJxI3TqQeE6x-10">
          <mxGeometry width="50" height="50" relative="1" as="geometry">
            <mxPoint x="240" y="180" as="sourcePoint" />
            <mxPoint x="275" y="160" as="targetPoint" />
          </mxGeometry>
        </mxCell>
        <mxCell id="ZxM0z7NMDJxI3TqQeE6x-173" value="" style="endArrow=none;html=1;rounded=0;exitX=0.5;exitY=0;exitDx=0;exitDy=0;" edge="1" parent="1" source="ZxM0z7NMDJxI3TqQeE6x-51">
          <mxGeometry width="50" height="50" relative="1" as="geometry">
            <mxPoint x="240" y="180" as="sourcePoint" />
            <mxPoint x="200" y="160" as="targetPoint" />
          </mxGeometry>
        </mxCell>
        <mxCell id="ZxM0z7NMDJxI3TqQeE6x-174" value="" style="endArrow=none;html=1;rounded=0;" edge="1" parent="1">
          <mxGeometry width="50" height="50" relative="1" as="geometry">
            <mxPoint x="680" y="160" as="sourcePoint" />
            <mxPoint x="750" y="160" as="targetPoint" />
          </mxGeometry>
        </mxCell>
        <mxCell id="ZxM0z7NMDJxI3TqQeE6x-176" value="" style="endArrow=none;html=1;rounded=0;entryX=0.5;entryY=0;entryDx=0;entryDy=0;" edge="1" parent="1" target="ZxM0z7NMDJxI3TqQeE6x-168">
          <mxGeometry width="50" height="50" relative="1" as="geometry">
            <mxPoint x="840" y="160" as="sourcePoint" />
            <mxPoint x="1040" y="140" as="targetPoint" />
            <Array as="points">
              <mxPoint x="920" y="160" />
            </Array>
          </mxGeometry>
        </mxCell>
        <mxCell id="ZxM0z7NMDJxI3TqQeE6x-177" value="Search Profile" style="rounded=0;whiteSpace=wrap;html=1;" vertex="1" parent="1">
          <mxGeometry x="1600" y="330" width="60" height="30" as="geometry" />
        </mxCell>
        <mxCell id="ZxM0z7NMDJxI3TqQeE6x-178" value="View Profile" style="rounded=0;whiteSpace=wrap;html=1;" vertex="1" parent="1">
          <mxGeometry x="1670" y="330" width="60" height="30" as="geometry" />
        </mxCell>
        <mxCell id="ZxM0z7NMDJxI3TqQeE6x-179" value="" style="endArrow=none;html=1;rounded=0;exitX=0.5;exitY=0;exitDx=0;exitDy=0;" edge="1" parent="1">
          <mxGeometry width="50" height="50" relative="1" as="geometry">
            <mxPoint x="1629.83" y="330" as="sourcePoint" />
            <mxPoint x="1700" y="320" as="targetPoint" />
            <Array as="points">
              <mxPoint x="1630" y="320" />
            </Array>
          </mxGeometry>
        </mxCell>
        <mxCell id="ZxM0z7NMDJxI3TqQeE6x-180" value="Edit Own Profile" style="rounded=0;whiteSpace=wrap;html=1;" vertex="1" parent="1">
          <mxGeometry x="1740" y="330" width="60" height="30" as="geometry" />
        </mxCell>
        <mxCell id="ZxM0z7NMDJxI3TqQeE6x-181" value="" style="endArrow=none;html=1;rounded=0;exitX=0.5;exitY=0;exitDx=0;exitDy=0;" edge="1" parent="1">
          <mxGeometry width="50" height="50" relative="1" as="geometry">
            <mxPoint x="1769.83" y="330" as="sourcePoint" />
            <mxPoint x="1700" y="320" as="targetPoint" />
            <Array as="points">
              <mxPoint x="1770" y="320" />
            </Array>
          </mxGeometry>
        </mxCell>
        <mxCell id="ZxM0z7NMDJxI3TqQeE6x-182" value="" style="endArrow=none;html=1;rounded=0;exitX=0.5;exitY=0;exitDx=0;exitDy=0;entryX=0.5;entryY=1;entryDx=0;entryDy=0;" edge="1" parent="1" target="ZxM0z7NMDJxI3TqQeE6x-183">
          <mxGeometry width="50" height="50" relative="1" as="geometry">
            <mxPoint x="1700" y="330" as="sourcePoint" />
            <mxPoint x="1700" y="310" as="targetPoint" />
          </mxGeometry>
        </mxCell>
        <mxCell id="ZxM0z7NMDJxI3TqQeE6x-183" value="" style="rhombus;whiteSpace=wrap;html=1;" vertex="1" parent="1">
          <mxGeometry x="1685" y="285" width="30" height="30" as="geometry" />
        </mxCell>
        <mxCell id="ZxM0z7NMDJxI3TqQeE6x-184" value="" style="endArrow=none;html=1;rounded=0;exitX=0.5;exitY=0;exitDx=0;exitDy=0;" edge="1" parent="1">
          <mxGeometry width="50" height="50" relative="1" as="geometry">
            <mxPoint x="1699.77" y="310" as="sourcePoint" />
            <mxPoint x="1700" y="310" as="targetPoint" />
          </mxGeometry>
        </mxCell>
        <mxCell id="ZxM0z7NMDJxI3TqQeE6x-185" value="Delete Profile" style="rounded=0;whiteSpace=wrap;html=1;" vertex="1" parent="1">
          <mxGeometry x="1530" y="330" width="60" height="30" as="geometry" />
        </mxCell>
        <mxCell id="ZxM0z7NMDJxI3TqQeE6x-186" value="" style="endArrow=none;html=1;rounded=0;exitX=0.5;exitY=1;exitDx=0;exitDy=0;entryX=0;entryY=0.5;entryDx=0;entryDy=0;" edge="1" parent="1" source="ZxM0z7NMDJxI3TqQeE6x-170" target="ZxM0z7NMDJxI3TqQeE6x-183">
          <mxGeometry width="50" height="50" relative="1" as="geometry">
            <mxPoint x="540" y="270" as="sourcePoint" />
            <mxPoint x="1140" y="250" as="targetPoint" />
            <Array as="points">
              <mxPoint x="423" y="210" />
              <mxPoint x="880" y="210" />
              <mxPoint x="880" y="230" />
              <mxPoint x="1530" y="230" />
              <mxPoint x="1530" y="300" />
            </Array>
          </mxGeometry>
        </mxCell>
        <mxCell id="ZxM0z7NMDJxI3TqQeE6x-187" value="" style="endArrow=none;html=1;rounded=0;entryX=0.5;entryY=1;entryDx=0;entryDy=0;exitX=0.5;exitY=0;exitDx=0;exitDy=0;" edge="1" parent="1" source="ZxM0z7NMDJxI3TqQeE6x-183" target="ZxM0z7NMDJxI3TqQeE6x-168">
          <mxGeometry width="50" height="50" relative="1" as="geometry">
            <mxPoint x="970" y="270" as="sourcePoint" />
            <mxPoint x="1020" y="220" as="targetPoint" />
            <Array as="points">
              <mxPoint x="1700" y="210" />
              <mxPoint x="920" y="210" />
            </Array>
          </mxGeometry>
        </mxCell>
        <mxCell id="ZxM0z7NMDJxI3TqQeE6x-188" value="" style="endArrow=none;html=1;rounded=0;exitX=0.5;exitY=0;exitDx=0;exitDy=0;" edge="1" parent="1" source="ZxM0z7NMDJxI3TqQeE6x-185">
          <mxGeometry width="50" height="50" relative="1" as="geometry">
            <mxPoint x="1530" y="270" as="sourcePoint" />
            <mxPoint x="1530" y="300" as="targetPoint" />
            <Array as="points">
              <mxPoint x="1560" y="320" />
              <mxPoint x="1530" y="320" />
            </Array>
          </mxGeometry>
        </mxCell>
        <mxCell id="ZxM0z7NMDJxI3TqQeE6x-189" value="Edit Client Profile" style="rounded=0;whiteSpace=wrap;html=1;" vertex="1" parent="1">
          <mxGeometry x="1460" y="330" width="60" height="30" as="geometry" />
        </mxCell>
        <mxCell id="ZxM0z7NMDJxI3TqQeE6x-190" value="" style="endArrow=none;html=1;rounded=0;exitX=0.5;exitY=0;exitDx=0;exitDy=0;" edge="1" parent="1" source="ZxM0z7NMDJxI3TqQeE6x-189">
          <mxGeometry width="50" height="50" relative="1" as="geometry">
            <mxPoint x="1380" y="220" as="sourcePoint" />
            <mxPoint x="1530" y="320" as="targetPoint" />
            <Array as="points">
              <mxPoint x="1490" y="320" />
            </Array>
          </mxGeometry>
        </mxCell>
        <mxCell id="ZxM0z7NMDJxI3TqQeE6x-192" value="Remove Song" style="rounded=0;whiteSpace=wrap;html=1;" vertex="1" parent="1">
          <mxGeometry x="-426" y="330" width="60" height="30" as="geometry" />
        </mxCell>
        <mxCell id="ZxM0z7NMDJxI3TqQeE6x-193" value="Edit Song" style="rounded=0;whiteSpace=wrap;html=1;" vertex="1" parent="1">
          <mxGeometry x="-356" y="330" width="60" height="30" as="geometry" />
        </mxCell>
        <mxCell id="ZxM0z7NMDJxI3TqQeE6x-194" value="" style="endArrow=none;html=1;rounded=0;exitX=0.5;exitY=0;exitDx=0;exitDy=0;" edge="1" parent="1" source="ZxM0z7NMDJxI3TqQeE6x-193">
          <mxGeometry width="50" height="50" relative="1" as="geometry">
            <mxPoint x="-266" y="320" as="sourcePoint" />
            <mxPoint x="-326" y="230" as="targetPoint" />
          </mxGeometry>
        </mxCell>
        <mxCell id="ZxM0z7NMDJxI3TqQeE6x-195" value="" style="endArrow=none;html=1;rounded=0;exitX=0.5;exitY=0;exitDx=0;exitDy=0;" edge="1" parent="1" source="ZxM0z7NMDJxI3TqQeE6x-70">
          <mxGeometry width="50" height="50" relative="1" as="geometry">
            <mxPoint x="-266" y="320" as="sourcePoint" />
            <mxPoint x="-396" y="230" as="targetPoint" />
            <Array as="points">
              <mxPoint x="-465" y="230" />
            </Array>
          </mxGeometry>
        </mxCell>
        <mxCell id="ZxM0z7NMDJxI3TqQeE6x-196" value="Remove Album" style="rounded=0;whiteSpace=wrap;html=1;" vertex="1" parent="1">
          <mxGeometry x="30" y="330" width="60" height="30" as="geometry" />
        </mxCell>
        <mxCell id="ZxM0z7NMDJxI3TqQeE6x-197" value="Edit Album" style="rounded=0;whiteSpace=wrap;html=1;" vertex="1" parent="1">
          <mxGeometry x="100" y="330" width="60" height="30" as="geometry" />
        </mxCell>
        <mxCell id="ZxM0z7NMDJxI3TqQeE6x-198" value="" style="endArrow=none;html=1;rounded=0;exitX=0.5;exitY=0;exitDx=0;exitDy=0;" edge="1" parent="1" source="ZxM0z7NMDJxI3TqQeE6x-196">
          <mxGeometry width="50" height="50" relative="1" as="geometry">
            <mxPoint x="80" y="350" as="sourcePoint" />
            <mxPoint x="60" y="310" as="targetPoint" />
          </mxGeometry>
        </mxCell>
        <mxCell id="ZxM0z7NMDJxI3TqQeE6x-199" value="" style="endArrow=none;html=1;rounded=0;exitX=0.5;exitY=0;exitDx=0;exitDy=0;" edge="1" parent="1" source="ZxM0z7NMDJxI3TqQeE6x-197">
          <mxGeometry width="50" height="50" relative="1" as="geometry">
            <mxPoint x="80" y="350" as="sourcePoint" />
            <mxPoint x="130" y="310" as="targetPoint" />
          </mxGeometry>
        </mxCell>
        <mxCell id="ZxM0z7NMDJxI3TqQeE6x-200" value="" style="endArrow=none;html=1;rounded=0;exitX=0.5;exitY=0;exitDx=0;exitDy=0;" edge="1" parent="1" source="ZxM0z7NMDJxI3TqQeE6x-88">
          <mxGeometry width="50" height="50" relative="1" as="geometry">
            <mxPoint x="30" y="580" as="sourcePoint" />
            <mxPoint x="90" y="560" as="targetPoint" />
          </mxGeometry>
        </mxCell>
        <mxCell id="ZxM0z7NMDJxI3TqQeE6x-201" value="Remove Artist" style="rounded=0;whiteSpace=wrap;html=1;" vertex="1" parent="1">
          <mxGeometry x="600" y="330" width="60" height="30" as="geometry" />
        </mxCell>
        <mxCell id="ZxM0z7NMDJxI3TqQeE6x-202" value="Edit Artist" style="rounded=0;whiteSpace=wrap;html=1;" vertex="1" parent="1">
          <mxGeometry x="666" y="330" width="60" height="30" as="geometry" />
        </mxCell>
        <mxCell id="ZxM0z7NMDJxI3TqQeE6x-203" value="" style="endArrow=none;html=1;rounded=0;exitX=0.5;exitY=0;exitDx=0;exitDy=0;" edge="1" parent="1" source="ZxM0z7NMDJxI3TqQeE6x-201">
          <mxGeometry width="50" height="50" relative="1" as="geometry">
            <mxPoint x="660" y="300" as="sourcePoint" />
            <mxPoint x="630" y="300" as="targetPoint" />
          </mxGeometry>
        </mxCell>
        <mxCell id="ZxM0z7NMDJxI3TqQeE6x-204" value="" style="endArrow=none;html=1;rounded=0;exitX=0.5;exitY=0;exitDx=0;exitDy=0;" edge="1" parent="1" source="ZxM0z7NMDJxI3TqQeE6x-202">
          <mxGeometry width="50" height="50" relative="1" as="geometry">
            <mxPoint x="660" y="300" as="sourcePoint" />
            <mxPoint x="696" y="300" as="targetPoint" />
          </mxGeometry>
        </mxCell>
        <mxCell id="ZxM0z7NMDJxI3TqQeE6x-206" value="Remove Producer" style="rounded=0;whiteSpace=wrap;html=1;" vertex="1" parent="1">
          <mxGeometry x="1070" y="330" width="60" height="30" as="geometry" />
        </mxCell>
        <mxCell id="ZxM0z7NMDJxI3TqQeE6x-207" value="Edit Producer" style="rounded=0;whiteSpace=wrap;html=1;" vertex="1" parent="1">
          <mxGeometry x="1140" y="330" width="60" height="30" as="geometry" />
        </mxCell>
        <mxCell id="ZxM0z7NMDJxI3TqQeE6x-208" value="" style="endArrow=none;html=1;rounded=0;exitX=0.5;exitY=0;exitDx=0;exitDy=0;" edge="1" parent="1" source="ZxM0z7NMDJxI3TqQeE6x-206">
          <mxGeometry width="50" height="50" relative="1" as="geometry">
            <mxPoint x="1130" y="390" as="sourcePoint" />
            <mxPoint x="1100" y="300" as="targetPoint" />
          </mxGeometry>
        </mxCell>
        <mxCell id="ZxM0z7NMDJxI3TqQeE6x-209" value="" style="endArrow=none;html=1;rounded=0;exitX=0.5;exitY=0;exitDx=0;exitDy=0;" edge="1" parent="1" source="ZxM0z7NMDJxI3TqQeE6x-207">
          <mxGeometry width="50" height="50" relative="1" as="geometry">
            <mxPoint x="1130" y="390" as="sourcePoint" />
            <mxPoint x="1170" y="300" as="targetPoint" />
          </mxGeometry>
        </mxCell>
        <mxCell id="paRT4qwHkM9-mjrmiuan-1" value="Remove Vote" style="rounded=0;whiteSpace=wrap;html=1;" vertex="1" parent="1">
          <mxGeometry x="236" y="750" width="60" height="30" as="geometry" />
        </mxCell>
        <mxCell id="paRT4qwHkM9-mjrmiuan-2" value="" style="endArrow=none;html=1;rounded=0;entryX=0.5;entryY=0;entryDx=0;entryDy=0;" edge="1" parent="1" target="paRT4qwHkM9-mjrmiuan-1">
          <mxGeometry width="50" height="50" relative="1" as="geometry">
            <mxPoint x="180" y="740" as="sourcePoint" />
            <mxPoint x="260" y="700" as="targetPoint" />
            <Array as="points">
              <mxPoint x="266" y="740" />
            </Array>
          </mxGeometry>
        </mxCell>
        <mxCell id="paRT4qwHkM9-mjrmiuan-3" value="" style="endArrow=none;html=1;rounded=0;exitX=0.5;exitY=0;exitDx=0;exitDy=0;entryX=0.5;entryY=1;entryDx=0;entryDy=0;" edge="1" parent="1" source="ZxM0z7NMDJxI3TqQeE6x-112" target="ZxM0z7NMDJxI3TqQeE6x-110">
          <mxGeometry width="50" height="50" relative="1" as="geometry">
            <mxPoint x="330" y="730" as="sourcePoint" />
            <mxPoint x="380" y="680" as="targetPoint" />
          </mxGeometry>
        </mxCell>
        <mxCell id="paRT4qwHkM9-mjrmiuan-4" value="" style="endArrow=none;html=1;rounded=0;entryX=0.5;entryY=0;entryDx=0;entryDy=0;" edge="1" parent="1" target="ZxM0z7NMDJxI3TqQeE6x-111">
          <mxGeometry width="50" height="50" relative="1" as="geometry">
            <mxPoint x="180" y="740" as="sourcePoint" />
            <mxPoint x="260" y="700" as="targetPoint" />
            <Array as="points">
              <mxPoint x="100" y="740" />
            </Array>
          </mxGeometry>
        </mxCell>
        <mxCell id="paRT4qwHkM9-mjrmiuan-5" value="View Comments" style="rounded=0;whiteSpace=wrap;html=1;" vertex="1" parent="1">
          <mxGeometry x="-355" y="750" width="60" height="30" as="geometry" />
        </mxCell>
        <mxCell id="paRT4qwHkM9-mjrmiuan-6" value="" style="endArrow=none;html=1;rounded=0;exitX=0.5;exitY=0;exitDx=0;exitDy=0;" edge="1" parent="1" source="paRT4qwHkM9-mjrmiuan-5">
          <mxGeometry width="50" height="50" relative="1" as="geometry">
            <mxPoint x="-240" y="808" as="sourcePoint" />
            <mxPoint x="-250" y="740" as="targetPoint" />
            <Array as="points">
              <mxPoint x="-325" y="740" />
            </Array>
          </mxGeometry>
        </mxCell>
        <mxCell id="paRT4qwHkM9-mjrmiuan-7" value="" style="endArrow=none;html=1;rounded=0;entryX=0;entryY=0.5;entryDx=0;entryDy=0;" edge="1" parent="1" target="ZxM0z7NMDJxI3TqQeE6x-116">
          <mxGeometry width="50" height="50" relative="1" as="geometry">
            <mxPoint x="-250" y="780" as="sourcePoint" />
            <mxPoint x="-7" y="812" as="targetPoint" />
            <Array as="points">
              <mxPoint x="-250" y="800" />
              <mxPoint x="40" y="800" />
              <mxPoint x="40" y="665" />
            </Array>
          </mxGeometry>
        </mxCell>
      </root>
    </mxGraphModel>
  </diagram>
</mxfile>
